<svg width="714" height="175" viewBox="0 0 714 175" fill="none" xmlns="http://www.w3.org/2000/svg">
    <path d="M65.677 162.306C62.787 162.306 60.237 161.711 58.027 160.521C55.851 159.331 54.151 157.699 52.927 155.625C51.737 153.551 51.142 151.171 51.142 148.485C51.142 145.799 51.72 143.419 52.876 141.345C54.066 139.271 55.681 137.656 57.721 136.5C59.795 135.31 62.124 134.715 64.708 134.715C67.326 134.715 69.638 135.293 71.644 136.449C73.65 137.605 75.214 139.237 76.336 141.345C77.492 143.419 78.07 145.85 78.07 148.638C78.07 148.842 78.053 149.08 78.019 149.352C78.019 149.624 78.002 149.879 77.968 150.117H54.967V146.598H75.418L73.429 147.822C73.463 146.088 73.106 144.541 72.358 143.181C71.61 141.821 70.573 140.767 69.247 140.019C67.955 139.237 66.442 138.846 64.708 138.846C63.008 138.846 61.495 139.237 60.169 140.019C58.843 140.767 57.806 141.838 57.058 143.232C56.31 144.592 55.936 146.156 55.936 147.924V148.74C55.936 150.542 56.344 152.157 57.16 153.585C58.01 154.979 59.183 156.067 60.679 156.849C62.175 157.631 63.892 158.022 65.83 158.022C67.428 158.022 68.873 157.75 70.165 157.206C71.491 156.662 72.647 155.846 73.633 154.758L76.336 157.92C75.112 159.348 73.582 160.436 71.746 161.184C69.944 161.932 67.921 162.306 65.677 162.306ZM99.3015 134.715C101.512 134.715 103.45 135.14 105.116 135.99C106.816 136.84 108.142 138.132 109.094 139.866C110.046 141.6 110.522 143.793 110.522 146.445V162H105.626V147.006C105.626 144.388 104.98 142.416 103.688 141.09C102.43 139.764 100.645 139.101 98.3325 139.101C96.5985 139.101 95.0855 139.441 93.7935 140.121C92.5015 140.801 91.4985 141.804 90.7845 143.13C90.1045 144.456 89.7645 146.105 89.7645 148.077V162H84.8685V134.97H89.5605V142.263L88.7955 140.325C89.6795 138.557 91.0395 137.18 92.8755 136.194C94.7115 135.208 96.8535 134.715 99.3015 134.715ZM127.334 162.306C125.09 162.306 122.948 162 120.908 161.388C118.902 160.776 117.321 160.028 116.165 159.144L118.205 155.268C119.361 156.05 120.789 156.713 122.489 157.257C124.189 157.801 125.923 158.073 127.691 158.073C129.969 158.073 131.601 157.75 132.587 157.104C133.607 156.458 134.117 155.557 134.117 154.401C134.117 153.551 133.811 152.888 133.199 152.412C132.587 151.936 131.771 151.579 130.751 151.341C129.765 151.103 128.66 150.899 127.436 150.729C126.212 150.525 124.988 150.287 123.764 150.015C122.54 149.709 121.418 149.301 120.398 148.791C119.378 148.247 118.562 147.516 117.95 146.598C117.338 145.646 117.032 144.388 117.032 142.824C117.032 141.192 117.491 139.764 118.409 138.54C119.327 137.316 120.619 136.381 122.285 135.735C123.985 135.055 125.991 134.715 128.303 134.715C130.071 134.715 131.856 134.936 133.658 135.378C135.494 135.786 136.99 136.381 138.146 137.163L136.055 141.039C134.831 140.223 133.556 139.662 132.23 139.356C130.904 139.05 129.578 138.897 128.252 138.897C126.11 138.897 124.512 139.254 123.458 139.968C122.404 140.648 121.877 141.532 121.877 142.62C121.877 143.538 122.183 144.252 122.795 144.762C123.441 145.238 124.257 145.612 125.243 145.884C126.263 146.156 127.385 146.394 128.609 146.598C129.833 146.768 131.057 147.006 132.281 147.312C133.505 147.584 134.61 147.975 135.596 148.485C136.616 148.995 137.432 149.709 138.044 150.627C138.69 151.545 139.013 152.769 139.013 154.299C139.013 155.931 138.537 157.342 137.585 158.532C136.633 159.722 135.29 160.657 133.556 161.337C131.822 161.983 129.748 162.306 127.334 162.306ZM157.168 162.306C154.278 162.306 151.728 161.711 149.518 160.521C147.342 159.331 145.642 157.699 144.418 155.625C143.228 153.551 142.633 151.171 142.633 148.485C142.633 145.799 143.211 143.419 144.367 141.345C145.557 139.271 147.172 137.656 149.212 136.5C151.286 135.31 153.615 134.715 156.199 134.715C158.817 134.715 161.129 135.293 163.135 136.449C165.141 137.605 166.705 139.237 167.827 141.345C168.983 143.419 169.561 145.85 169.561 148.638C169.561 148.842 169.544 149.08 169.51 149.352C169.51 149.624 169.493 149.879 169.459 150.117H146.458V146.598H166.909L164.92 147.822C164.954 146.088 164.597 144.541 163.849 143.181C163.101 141.821 162.064 140.767 160.738 140.019C159.446 139.237 157.933 138.846 156.199 138.846C154.499 138.846 152.986 139.237 151.66 140.019C150.334 140.767 149.297 141.838 148.549 143.232C147.801 144.592 147.427 146.156 147.427 147.924V148.74C147.427 150.542 147.835 152.157 148.651 153.585C149.501 154.979 150.674 156.067 152.17 156.849C153.666 157.631 155.383 158.022 157.321 158.022C158.919 158.022 160.364 157.75 161.656 157.206C162.982 156.662 164.138 155.846 165.124 154.758L167.827 157.92C166.603 159.348 165.073 160.436 163.237 161.184C161.435 161.932 159.412 162.306 157.168 162.306ZM210.173 134.715C212.349 134.715 214.27 135.14 215.936 135.99C217.602 136.84 218.894 138.132 219.812 139.866C220.764 141.6 221.24 143.793 221.24 146.445V162H216.344V147.006C216.344 144.388 215.732 142.416 214.508 141.09C213.284 139.764 211.567 139.101 209.357 139.101C207.725 139.101 206.297 139.441 205.073 140.121C203.849 140.801 202.897 141.804 202.217 143.13C201.571 144.456 201.248 146.105 201.248 148.077V162H196.352V147.006C196.352 144.388 195.74 142.416 194.516 141.09C193.326 139.764 191.609 139.101 189.365 139.101C187.767 139.101 186.356 139.441 185.132 140.121C183.908 140.801 182.956 141.804 182.276 143.13C181.596 144.456 181.256 146.105 181.256 148.077V162H176.36V134.97H181.052V142.161L180.287 140.325C181.137 138.557 182.446 137.18 184.214 136.194C185.982 135.208 188.039 134.715 190.385 134.715C192.969 134.715 195.196 135.361 197.066 136.653C198.936 137.911 200.16 139.832 200.738 142.416L198.749 141.6C199.565 139.526 200.993 137.86 203.033 136.602C205.073 135.344 207.453 134.715 210.173 134.715ZM244.579 162.306C242.267 162.306 240.176 161.796 238.306 160.776C236.47 159.722 235.008 158.175 233.92 156.135C232.866 154.095 232.339 151.545 232.339 148.485C232.339 145.425 232.883 142.875 233.971 140.835C235.093 138.795 236.572 137.265 238.408 136.245C240.278 135.225 242.335 134.715 244.579 134.715C247.231 134.715 249.577 135.293 251.617 136.449C253.657 137.605 255.272 139.22 256.462 141.294C257.652 143.334 258.247 145.731 258.247 148.485C258.247 151.239 257.652 153.653 256.462 155.727C255.272 157.801 253.657 159.416 251.617 160.572C249.577 161.728 247.231 162.306 244.579 162.306ZM230.248 162V124.158H235.144V142.161L234.634 148.434L234.94 154.707V162H230.248ZM244.171 158.022C245.905 158.022 247.452 157.631 248.812 156.849C250.206 156.067 251.294 154.962 252.076 153.534C252.892 152.072 253.3 150.389 253.3 148.485C253.3 146.547 252.892 144.881 252.076 143.487C251.294 142.059 250.206 140.954 248.812 140.172C247.452 139.39 245.905 138.999 244.171 138.999C242.471 138.999 240.924 139.39 239.53 140.172C238.17 140.954 237.082 142.059 236.266 143.487C235.484 144.881 235.093 146.547 235.093 148.485C235.093 150.389 235.484 152.072 236.266 153.534C237.082 154.962 238.17 156.067 239.53 156.849C240.924 157.631 242.471 158.022 244.171 158.022ZM265.012 162V124.158H269.908V162H265.012ZM291.292 162.306C288.402 162.306 285.852 161.711 283.642 160.521C281.466 159.331 279.766 157.699 278.542 155.625C277.352 153.551 276.757 151.171 276.757 148.485C276.757 145.799 277.335 143.419 278.491 141.345C279.681 139.271 281.296 137.656 283.336 136.5C285.41 135.31 287.739 134.715 290.323 134.715C292.941 134.715 295.253 135.293 297.259 136.449C299.265 137.605 300.829 139.237 301.951 141.345C303.107 143.419 303.685 145.85 303.685 148.638C303.685 148.842 303.668 149.08 303.634 149.352C303.634 149.624 303.617 149.879 303.583 150.117H280.582V146.598H301.033L299.044 147.822C299.078 146.088 298.721 144.541 297.973 143.181C297.225 141.821 296.188 140.767 294.862 140.019C293.57 139.237 292.057 138.846 290.323 138.846C288.623 138.846 287.11 139.237 285.784 140.019C284.458 140.767 283.421 141.838 282.673 143.232C281.925 144.592 281.551 146.156 281.551 147.924V148.74C281.551 150.542 281.959 152.157 282.775 153.585C283.625 154.979 284.798 156.067 286.294 156.849C287.79 157.631 289.507 158.022 291.445 158.022C293.043 158.022 294.488 157.75 295.78 157.206C297.106 156.662 298.262 155.846 299.248 154.758L301.951 157.92C300.727 159.348 299.197 160.436 297.361 161.184C295.559 161.932 293.536 162.306 291.292 162.306ZM338.511 162.306C336.267 162.306 334.21 161.796 332.34 160.776C330.504 159.722 329.025 158.175 327.903 156.135C326.815 154.095 326.271 151.545 326.271 148.485C326.271 145.425 326.798 142.875 327.852 140.835C328.94 138.795 330.402 137.265 332.238 136.245C334.108 135.225 336.199 134.715 338.511 134.715C341.163 134.715 343.509 135.293 345.549 136.449C347.589 137.605 349.204 139.22 350.394 141.294C351.584 143.334 352.179 145.731 352.179 148.485C352.179 151.239 351.584 153.653 350.394 155.727C349.204 157.801 347.589 159.416 345.549 160.572C343.509 161.728 341.163 162.306 338.511 162.306ZM324.18 171.894V134.97H328.872V142.263L328.566 148.536L329.076 154.809V171.894H324.18ZM338.103 158.022C339.837 158.022 341.384 157.631 342.744 156.849C344.138 156.067 345.226 154.962 346.008 153.534C346.824 152.072 347.232 150.389 347.232 148.485C347.232 146.547 346.824 144.881 346.008 143.487C345.226 142.059 344.138 140.954 342.744 140.172C341.384 139.39 339.837 138.999 338.103 138.999C336.403 138.999 334.856 139.39 333.462 140.172C332.102 140.954 331.014 142.059 330.198 143.487C329.416 144.881 329.025 146.547 329.025 148.485C329.025 150.389 329.416 152.072 330.198 153.534C331.014 154.962 332.102 156.067 333.462 156.849C334.856 157.631 336.403 158.022 338.103 158.022ZM370.521 162.306C367.801 162.306 365.387 161.711 363.279 160.521C361.171 159.331 359.505 157.699 358.281 155.625C357.057 153.517 356.445 151.137 356.445 148.485C356.445 145.799 357.057 143.419 358.281 141.345C359.505 139.271 361.171 137.656 363.279 136.5C365.387 135.31 367.801 134.715 370.521 134.715C373.207 134.715 375.604 135.31 377.712 136.5C379.854 137.656 381.52 139.271 382.71 141.345C383.934 143.385 384.546 145.765 384.546 148.485C384.546 151.171 383.934 153.551 382.71 155.625C381.52 157.699 379.854 159.331 377.712 160.521C375.604 161.711 373.207 162.306 370.521 162.306ZM370.521 158.022C372.255 158.022 373.802 157.631 375.162 156.849C376.556 156.067 377.644 154.962 378.426 153.534C379.208 152.072 379.599 150.389 379.599 148.485C379.599 146.547 379.208 144.881 378.426 143.487C377.644 142.059 376.556 140.954 375.162 140.172C373.802 139.39 372.255 138.999 370.521 138.999C368.787 138.999 367.24 139.39 365.88 140.172C364.52 140.954 363.432 142.059 362.616 143.487C361.8 144.881 361.392 146.547 361.392 148.485C361.392 150.389 361.8 152.072 362.616 153.534C363.432 154.962 364.52 156.067 365.88 156.849C367.24 157.631 368.787 158.022 370.521 158.022ZM402.69 162.306C400.378 162.306 398.338 161.881 396.57 161.031C394.836 160.181 393.476 158.889 392.49 157.155C391.538 155.387 391.062 153.177 391.062 150.525V134.97H395.958V149.964C395.958 152.616 396.587 154.605 397.845 155.931C399.137 157.257 400.939 157.92 403.251 157.92C404.951 157.92 406.43 157.58 407.688 156.9C408.946 156.186 409.915 155.166 410.595 153.84C411.275 152.48 411.615 150.848 411.615 148.944V134.97H416.511V162H411.87V154.707L412.635 156.645C411.751 158.447 410.425 159.841 408.657 160.827C406.889 161.813 404.9 162.306 402.69 162.306ZM425.831 162V134.97H430.523V142.314L430.064 140.478C430.812 138.608 432.07 137.18 433.838 136.194C435.606 135.208 437.782 134.715 440.366 134.715V139.458C440.162 139.424 439.958 139.407 439.754 139.407C439.584 139.407 439.414 139.407 439.244 139.407C436.626 139.407 434.552 140.189 433.022 141.753C431.492 143.317 430.727 145.578 430.727 148.536V162H425.831ZM460.446 162V124.158H465.342V162H460.446ZM491.469 162V156.288L491.214 155.217V145.476C491.214 143.402 490.602 141.804 489.378 140.682C488.188 139.526 486.386 138.948 483.972 138.948C482.374 138.948 480.81 139.22 479.28 139.764C477.75 140.274 476.458 140.971 475.404 141.855L473.364 138.183C474.758 137.061 476.424 136.211 478.362 135.633C480.334 135.021 482.391 134.715 484.533 134.715C488.239 134.715 491.095 135.616 493.101 137.418C495.107 139.22 496.11 141.974 496.11 145.68V162H491.469ZM482.595 162.306C480.589 162.306 478.821 161.966 477.291 161.286C475.795 160.606 474.639 159.671 473.823 158.481C473.007 157.257 472.599 155.88 472.599 154.35C472.599 152.888 472.939 151.562 473.619 150.372C474.333 149.182 475.472 148.23 477.036 147.516C478.634 146.802 480.776 146.445 483.462 146.445H492.03V149.964H483.666C481.218 149.964 479.569 150.372 478.719 151.188C477.869 152.004 477.444 152.99 477.444 154.146C477.444 155.472 477.971 156.543 479.025 157.359C480.079 158.141 481.541 158.532 483.411 158.532C485.247 158.532 486.845 158.124 488.205 157.308C489.599 156.492 490.602 155.302 491.214 153.738L492.183 157.104C491.537 158.702 490.398 159.977 488.766 160.929C487.134 161.847 485.077 162.306 482.595 162.306ZM552.68 134.715C554.856 134.715 556.777 135.14 558.443 135.99C560.109 136.84 561.401 138.132 562.319 139.866C563.271 141.6 563.747 143.793 563.747 146.445V162H558.851V147.006C558.851 144.388 558.239 142.416 557.015 141.09C555.791 139.764 554.074 139.101 551.864 139.101C550.232 139.101 548.804 139.441 547.58 140.121C546.356 140.801 545.404 141.804 544.724 143.13C544.078 144.456 543.755 146.105 543.755 148.077V162H538.859V147.006C538.859 144.388 538.247 142.416 537.023 141.09C535.833 139.764 534.116 139.101 531.872 139.101C530.274 139.101 528.863 139.441 527.639 140.121C526.415 140.801 525.463 141.804 524.783 143.13C524.103 144.456 523.763 146.105 523.763 148.077V162H518.867V134.97H523.559V142.161L522.794 140.325C523.644 138.557 524.953 137.18 526.721 136.194C528.489 135.208 530.546 134.715 532.892 134.715C535.476 134.715 537.703 135.361 539.573 136.653C541.443 137.911 542.667 139.832 543.245 142.416L541.256 141.6C542.072 139.526 543.5 137.86 545.54 136.602C547.58 135.344 549.96 134.715 552.68 134.715ZM584.332 162.306C581.612 162.306 579.198 161.711 577.09 160.521C574.982 159.331 573.316 157.699 572.092 155.625C570.868 153.517 570.256 151.137 570.256 148.485C570.256 145.799 570.868 143.419 572.092 141.345C573.316 139.271 574.982 137.656 577.09 136.5C579.198 135.31 581.612 134.715 584.332 134.715C587.018 134.715 589.415 135.31 591.523 136.5C593.665 137.656 595.331 139.271 596.521 141.345C597.745 143.385 598.357 145.765 598.357 148.485C598.357 151.171 597.745 153.551 596.521 155.625C595.331 157.699 593.665 159.331 591.523 160.521C589.415 161.711 587.018 162.306 584.332 162.306ZM584.332 158.022C586.066 158.022 587.613 157.631 588.973 156.849C590.367 156.067 591.455 154.962 592.237 153.534C593.019 152.072 593.41 150.389 593.41 148.485C593.41 146.547 593.019 144.881 592.237 143.487C591.455 142.059 590.367 140.954 588.973 140.172C587.613 139.39 586.066 138.999 584.332 138.999C582.598 138.999 581.051 139.39 579.691 140.172C578.331 140.954 577.243 142.059 576.427 143.487C575.611 144.881 575.203 146.547 575.203 148.485C575.203 150.389 575.611 152.072 576.427 153.534C577.243 154.962 578.331 156.067 579.691 156.849C581.051 157.631 582.598 158.022 584.332 158.022ZM616.297 162.306C613.679 162.306 611.333 161.728 609.259 160.572C607.219 159.416 605.604 157.801 604.414 155.727C603.224 153.653 602.629 151.239 602.629 148.485C602.629 145.731 603.224 143.334 604.414 141.294C605.604 139.22 607.219 137.605 609.259 136.449C611.333 135.293 613.679 134.715 616.297 134.715C618.575 134.715 620.632 135.225 622.468 136.245C624.304 137.265 625.766 138.795 626.854 140.835C627.976 142.875 628.537 145.425 628.537 148.485C628.537 151.545 627.993 154.095 626.905 156.135C625.851 158.175 624.406 159.722 622.57 160.776C620.734 161.796 618.643 162.306 616.297 162.306ZM616.705 158.022C618.405 158.022 619.935 157.631 621.295 156.849C622.689 156.067 623.777 154.962 624.559 153.534C625.375 152.072 625.783 150.389 625.783 148.485C625.783 146.547 625.375 144.881 624.559 143.487C623.777 142.059 622.689 140.954 621.295 140.172C619.935 139.39 618.405 138.999 616.705 138.999C614.971 138.999 613.424 139.39 612.064 140.172C610.704 140.954 609.616 142.059 608.8 143.487C607.984 144.881 607.576 146.547 607.576 148.485C607.576 150.389 607.984 152.072 608.8 153.534C609.616 154.962 610.704 156.067 612.064 156.849C613.424 157.631 614.971 158.022 616.705 158.022ZM625.936 162V154.707L626.242 148.434L625.732 142.161V124.158H630.628V162H625.936ZM651.928 162.306C649.038 162.306 646.488 161.711 644.278 160.521C642.102 159.331 640.402 157.699 639.178 155.625C637.988 153.551 637.393 151.171 637.393 148.485C637.393 145.799 637.971 143.419 639.127 141.345C640.317 139.271 641.932 137.656 643.972 136.5C646.046 135.31 648.375 134.715 650.959 134.715C653.577 134.715 655.889 135.293 657.895 136.449C659.901 137.605 661.465 139.237 662.587 141.345C663.743 143.419 664.321 145.85 664.321 148.638C664.321 148.842 664.304 149.08 664.27 149.352C664.27 149.624 664.253 149.879 664.219 150.117H641.218V146.598H661.669L659.68 147.822C659.714 146.088 659.357 144.541 658.609 143.181C657.861 141.821 656.824 140.767 655.498 140.019C654.206 139.237 652.693 138.846 650.959 138.846C649.259 138.846 647.746 139.237 646.42 140.019C645.094 140.767 644.057 141.838 643.309 143.232C642.561 144.592 642.187 146.156 642.187 147.924V148.74C642.187 150.542 642.595 152.157 643.411 153.585C644.261 154.979 645.434 156.067 646.93 156.849C648.426 157.631 650.143 158.022 652.081 158.022C653.679 158.022 655.124 157.75 656.416 157.206C657.742 156.662 658.898 155.846 659.884 154.758L662.587 157.92C661.363 159.348 659.833 160.436 657.997 161.184C656.195 161.932 654.172 162.306 651.928 162.306Z" fill="black"/>
    <circle cx="202.792" cy="67.4583" r="6.45833" fill="black"/>
    <path d="M247.223 61.362H284.046V70.134H247.223V61.362ZM248.243 99H238.043V27.6H288.431V36.474H248.243V99ZM302.79 99V27.6H330.636C336.892 27.6 342.23 28.586 346.65 30.558C351.07 32.53 354.47 35.386 356.85 39.126C359.23 42.866 360.42 47.32 360.42 52.488C360.42 57.656 359.23 62.11 356.85 65.85C354.47 69.522 351.07 72.344 346.65 74.316C342.23 76.288 336.892 77.274 330.636 77.274H308.4L312.99 72.582V99H302.79ZM350.526 99L332.37 73.092H343.284L361.644 99H350.526ZM312.99 73.602L308.4 68.604H330.33C336.858 68.604 341.788 67.21 345.12 64.422C348.52 61.566 350.22 57.588 350.22 52.488C350.22 47.388 348.52 43.444 345.12 40.656C341.788 37.868 336.858 36.474 330.33 36.474H308.4L312.99 31.374V73.602ZM376.899 99V27.6H387.099V99H376.899ZM408.475 99V27.6H436.321C442.577 27.6 447.915 28.586 452.335 30.558C456.755 32.53 460.155 35.386 462.535 39.126C464.915 42.866 466.105 47.32 466.105 52.488C466.105 57.656 464.915 62.11 462.535 65.85C460.155 69.522 456.755 72.378 452.335 74.418C447.915 76.39 442.577 77.376 436.321 77.376H414.085L418.675 72.582V99H408.475ZM418.675 73.602L414.085 68.502H436.015C442.543 68.502 447.473 67.108 450.805 64.32C454.205 61.532 455.905 57.588 455.905 52.488C455.905 47.388 454.205 43.444 450.805 40.656C447.473 37.868 442.543 36.474 436.015 36.474H414.085L418.675 31.374V73.602ZM490.372 58.404H527.092V67.074H490.372V58.404ZM491.29 90.126H532.906V99H481.09V27.6H531.478V36.474H491.29V90.126ZM549.422 99V27.6H577.268C583.524 27.6 588.862 28.586 593.282 30.558C597.702 32.53 601.102 35.386 603.482 39.126C605.862 42.866 607.052 47.32 607.052 52.488C607.052 57.656 605.862 62.11 603.482 65.85C601.102 69.522 597.702 72.344 593.282 74.316C588.862 76.288 583.524 77.274 577.268 77.274H555.032L559.622 72.582V99H549.422ZM597.158 99L579.002 73.092H589.916L608.276 99H597.158ZM559.622 73.602L555.032 68.604H576.962C583.49 68.604 588.42 67.21 591.752 64.422C595.152 61.566 596.852 57.588 596.852 52.488C596.852 47.388 595.152 43.444 591.752 40.656C588.42 37.868 583.49 36.474 576.962 36.474H555.032L559.622 31.374V73.602ZM623.532 99V27.6H633.732V99H623.532ZM664.39 58.404H701.11V67.074H664.39V58.404ZM665.308 90.126H706.924V99H655.108V27.6H705.496V36.474H665.308V90.126Z" fill="black"/>
    <path d="M10.71 99V27.6H19.074L51.102 81.558H46.614L78.234 27.6H86.598L86.7 99H76.908L76.806 43.002H79.152L51 90.33H46.308L17.952 43.002H20.502V99H10.71ZM97.316 99L129.65 27.6H139.748L172.184 99H161.474L132.608 33.312H136.688L107.822 99H97.316ZM111.086 81.15L113.84 72.99H154.028L156.986 81.15H111.086Z" fill="black"/>
</svg>