<?xml version="1.0" encoding="utf-8"?>
<svg xmlns="http://www.w3.org/2000/svg" width="2435.202" height="1400" viewBox="0 0 2435.202 1400">
  <g id="Groupe_47" data-name="Groupe 47" transform="translate(-291.11 -305.253)">
    <ellipse id="Ellipse_1" data-name="Ellipse 1" cx="533.904" cy="36.68" rx="533.904" ry="36.68" transform="translate(291.11 1592.494)" fill="#f6e3d3"/>
    <ellipse id="Ellipse_2" data-name="Ellipse 2" cx="332.2" cy="25.682" rx="332.2" ry="25.682" transform="translate(1289.004 1603.492)" fill="#f6e3d3"/>
    <path id="Tracé_1" data-name="Tracé 1" d="M893.519,1224.673c-34.676-30.533-57.491-73.108-120.822-123.761-40.325-32.254-272.062-33.865-312.66-294.443a308.218,308.218,0,0,1-1.516-82.35c50.395-423.491,575.7-546.9,951.925-272.957,94.287,68.654,295.308,314.905,132.23,635.5C1430.14,1307.9,1126.173,1429.534,893.519,1224.673Z" fill="#f6e3d3"/>
    <path id="Tracé_2" data-name="Tracé 2" d="M1747.537,1448.075c-43.1-37.952-71.46-90.872-150.179-153.833-50.124-40.09-338.168-42.094-388.632-365.987a383.14,383.14,0,0,1-1.884-102.36C1269.483,299.5,1922.423,146.1,2390.068,486.615c117.2,85.336,367.061,391.421,164.359,789.914C2414.546,1551.521,2036.721,1702.714,1747.537,1448.075Z" fill="#f6e3d3"/>
    <g id="Groupe_1" data-name="Groupe 1">
      <rect id="Rectangle_1" data-name="Rectangle 1" width="198.3" height="374.638" transform="translate(686.327 833.621)" fill="#fff"/>
      <rect id="Rectangle_2" data-name="Rectangle 2" width="198.3" height="374.638" transform="translate(686.327 443.245)" fill="#fff"/>
      <rect id="Rectangle_3" data-name="Rectangle 3" width="198.3" height="374.638" transform="translate(900.365 833.621)" fill="#fff"/>
      <rect id="Rectangle_4" data-name="Rectangle 4" width="198.3" height="374.638" transform="translate(900.365 443.245)" fill="#fff"/>
      <rect id="Rectangle_5" data-name="Rectangle 5" width="198.3" height="374.638" transform="translate(1114.403 833.621)" fill="#fff"/>
      <rect id="Rectangle_6" data-name="Rectangle 6" width="198.3" height="374.638" transform="translate(1114.403 443.245)" fill="#fff"/>
    </g>
    <g id="Groupe_3" data-name="Groupe 3">
      <path id="Tracé_3" data-name="Tracé 3" d="M1328.843,1198.179c-45.634-30.435-74.6-13.681-78.7-25.716-4.842-14.219.566-62.812-5.2-85.07-3.387-13.061-11.057-25.093-59.433-33.018-58.216-9.539-121.629-13.767-185.991-13.435-64.361-.332-127.775,3.9-185.99,13.435-48.376,7.925-56.047,19.957-59.433,33.018-5.771,22.258-.363,70.851-5.205,85.07-4.1,12.035-33.067-4.719-78.7,25.716-71.7,47.821,29.569,289.689,83.439,331.581,16.943,13.176,44.594,11.228,49.8,11.42,95.878,3.536,148.315,5.344,195.5,5.345h1.175c47.189,0,99.625-1.809,195.5-5.345,5.205-.192,32.856,1.756,49.8-11.42C1299.274,1487.868,1400.546,1246,1328.843,1198.179Z" fill="#eb9e94"/>
      <g id="Groupe_2" data-name="Groupe 2">
        <path id="Tracé_4" data-name="Tracé 4" d="M783.606,1638.033h14.1a5.511,5.511,0,0,0,5.495-5.495l36.177-135.682a5.512,5.512,0,0,0-5.495-5.495H801.449a5.512,5.512,0,0,0-5.495,5.495l-17.843,135.682A5.511,5.511,0,0,0,783.606,1638.033Z" fill="#282444"/>
        <path id="Tracé_5" data-name="Tracé 5" d="M869.9,1598.724h8.193a3.2,3.2,0,0,0,3.193-3.193l21.022-78.845a3.2,3.2,0,0,0-3.193-3.193H880.266a3.2,3.2,0,0,0-3.193,3.193l-10.368,78.845A3.2,3.2,0,0,0,869.9,1598.724Z" fill="#282444"/>
        <path id="Tracé_6" data-name="Tracé 6" d="M1215.423,1638.033h-14.1a5.511,5.511,0,0,1-5.495-5.495l-36.177-135.682a5.511,5.511,0,0,1,5.495-5.495h32.432a5.511,5.511,0,0,1,5.495,5.495l17.843,135.682A5.511,5.511,0,0,1,1215.423,1638.033Z" fill="#282444"/>
        <path id="Tracé_7" data-name="Tracé 7" d="M1129.131,1598.724h-8.192a3.2,3.2,0,0,1-3.193-3.193l-21.023-78.845a3.2,3.2,0,0,1,3.193-3.193h18.847a3.2,3.2,0,0,1,3.193,3.193l10.369,78.845A3.2,3.2,0,0,1,1129.131,1598.724Z" fill="#282444"/>
      </g>
      <path id="Tracé_8" data-name="Tracé 8" d="M1341.911,1214.443a88.527,88.527,0,0,0-11.348-5.072c-12.947-4.726-26.034-3.287-30.709-2.762,0,0-22.031,2.506-42.551,20.631-59.7,52.731-26.355,200.127-64.391,210.364-40.537,10.911-116.594,10.294-191.968,10.02v-.011l-1.43.005-1.429-.005v.011c-75.373.274-151.431.891-191.968-10.02-38.036-10.237-4.693-157.633-64.39-210.364-20.52-18.125-42.552-20.631-42.552-20.631-4.675-.525-17.762-1.964-30.709,2.762a88.569,88.569,0,0,0-11.347,5.072c-42.012,70.1,47.753,278.154,97.348,316.72,16.945,13.176,44.6,11.2,49.8,11.421,82.413,3.51,137.186,6.1,193.819,6.273v.009l1.429,0,1.43,0v-.009c56.634-.172,111.407-2.763,193.819-6.273,5.2-.222,32.855,1.755,49.8-11.421C1294.157,1492.6,1383.922,1284.541,1341.911,1214.443Z" fill="#ffbcb0"/>
      <path id="Tracé_9" data-name="Tracé 9" d="M1250.143,1172.463c-4.842-14.219.566-62.812-5.2-85.07-3.387-13.061-11.057-25.093-59.433-33.018-58.216-9.539-121.629-13.767-185.991-13.435-64.361-.332-127.775,3.9-185.99,13.435-48.376,7.925-56.047,19.957-59.433,33.018-5.771,22.258-.363,70.851-5.205,85.07-.969,2.845-3.344,4.074-6.985,4.7a93.693,93.693,0,0,1,46.071,14.352c45.837,29.177,46.959,141.191,47.292,141.136.012,0-.027-.167-.013-.256.219-1.457,327.659-1.457,327.88,0,.013.089-.027.254-.014.256.333.055,1.454-111.959,47.292-141.136a93.644,93.644,0,0,1,46.62-14.37C1253.445,1176.514,1251.1,1175.282,1250.143,1172.463Z" fill="#f9b1a7"/>
      <path id="Tracé_10" data-name="Tracé 10" d="M999.515,1444.681c-71.542,0-163.35-1.577-186.639-6.02-2.093-.4-9.308-2.374-14.345-11.047-5.361-9.228-25.858-68.484-12.6-90.568,13.839-23.057,46.207-29.464,64.267-31.231,25.816-2.526,83.032-4.095,149.322-4.095s123.506,1.569,149.321,4.095c18.06,1.767,50.429,8.174,64.267,31.23,13.253,22.085-7.244,81.341-12.6,90.569-5.038,8.673-12.253,10.648-14.345,11.047C1162.864,1443.1,1071.058,1444.681,999.515,1444.681Z" fill="#eb9e94"/>
      <path id="Tracé_11" data-name="Tracé 11" d="M1207.169,1340.607c-12.172-20.279-41.945-26.235-59.007-27.905-55.355-5.415-241.94-5.415-297.294,0-17.062,1.67-46.836,7.626-59.007,27.905-11.149,18.577,7.353,74.4,12.654,83.531,3.39,5.837,7.885,7.388,9.657,7.725,41.214,7.863,329.472,7.863,370.686,0,1.771-.337,6.267-1.888,9.657-7.725C1199.816,1415.011,1218.318,1359.184,1207.169,1340.607Z" fill="#ffbcb0"/>
    </g>
    <g id="Groupe_20" data-name="Groupe 20">
      <path id="Tracé_12" data-name="Tracé 12" d="M1560.313,1241.866c-25.068,0-45.463-21.223-45.463-47.309v-704c0-26.086,20.4-47.309,45.463-47.309H2331.7c25.067,0,45.462,21.223,45.462,47.309v704c0,26.086-20.4,47.309-45.462,47.309Z" fill="#282444"/>
      <path id="Tracé_13" data-name="Tracé 13" d="M2331.7,1222.488H1560.313c-14.407,0-26.086-12.505-26.086-27.931v-704c0-15.426,11.679-27.931,26.086-27.931H2331.7c14.407,0,26.086,12.505,26.086,27.931v704C2357.788,1209.983,2346.109,1222.488,2331.7,1222.488Z" fill="#f6e3d3"/>
      <rect id="Rectangle_7" data-name="Rectangle 7" width="250.008" height="340.615" rx="10.458" transform="translate(1564.039 628.502)" fill="#fff"/>
      <circle id="Ellipse_3" data-name="Ellipse 3" cx="11.24" cy="11.24" r="11.24" transform="translate(1779.926 640.037) rotate(-22.5)" fill="#ffbcb0"/>
      <path id="Tracé_14" data-name="Tracé 14" d="M1796.289,646.12l4.22-4.22a1.186,1.186,0,0,0-1.677-1.678l-4.221,4.221-4.22-4.221a1.186,1.186,0,0,0-1.677,1.678l4.22,4.22-4.22,4.221a1.186,1.186,0,0,0,1.677,1.677l4.22-4.221,4.221,4.221a1.186,1.186,0,0,0,1.677-1.677Z" fill="#fff"/>
      <path id="Tracé_15" data-name="Tracé 15" d="M1680.293,887.57a5.4,5.4,0,1,1-5.4-5.4A5.4,5.4,0,0,1,1680.293,887.57Z" fill="#ffbcb0"/>
      <path id="Tracé_16" data-name="Tracé 16" d="M1698.5,887.57a5.4,5.4,0,1,1-5.4-5.4A5.4,5.4,0,0,1,1698.5,887.57Z" fill="#eb9e94"/>
      <circle id="Ellipse_4" data-name="Ellipse 4" cx="5.399" cy="5.399" r="5.399" transform="translate(1705.906 882.172)" fill="#ffbcb0"/>
      <path id="Tracé_17" data-name="Tracé 17" d="M1789.661,792.746c-5.013-54.13-8.944-65.073-18.6-99.018-2.4-8.451-11.856-22.972-22.8-31.2-2.844-2.138-20.32-8.128-27.429-10.206a7.01,7.01,0,0,0-5.341.837c-5.8,3.151-27.929,7.378-42.522,0a7.258,7.258,0,0,0-5.341-.837c-7.109,2.078-24.585,8.068-27.429,10.206-10.946,8.229-20.4,22.75-22.8,31.2-9.659,33.945-13.59,44.888-18.6,99.018-2.339,25.264-2.632,48.7-2.662,56.1a2.419,2.419,0,0,0,2.411,2.428l21.912.122a2.418,2.418,0,0,0,2.412-2.071c.871-6.039,3.542-24.192,6.536-40.956,6.543-36.642,9.537-47.132,10.706-47.413,1.195-.287,1.362,21.24-.092,49.157-.908,17.431-1.317,25.555-1.495,29.17a2.6,2.6,0,0,0,2.547,2.722c11.61.272,94.712.272,106.322,0a2.6,2.6,0,0,0,2.547-2.722c-.178-3.615-.588-11.739-1.495-29.17-1.454-27.917-1.286-49.444-.092-49.157,1.169.281,4.163,10.771,10.706,47.413,2.994,16.764,5.665,34.917,6.536,40.956A2.418,2.418,0,0,0,1768,851.4l21.913-.122a2.42,2.42,0,0,0,2.411-2.428C1792.293,841.443,1792,818.01,1789.661,792.746Z" fill="#ffbcb0"/>
      <g id="Groupe_5" data-name="Groupe 5">
        <g id="Groupe_4" data-name="Groupe 4">
          <path id="Tracé_18" data-name="Tracé 18" d="M1694.225,688.269c-15.525,0-28.156-12.416-28.156-27.676a27.468,27.468,0,0,1,.457-4.947,3.121,3.121,0,0,1,3.29-2.544,11.947,11.947,0,0,1,4.553,1.361c13.5,6.822,34.731,2.705,39.631.043a11.237,11.237,0,0,1,4.663-1.419,3.129,3.129,0,0,1,3.258,2.544,27.451,27.451,0,0,1,.46,4.962C1722.381,675.853,1709.75,688.269,1694.225,688.269ZM1672.3,660.388c0,.068,0,.136,0,.205a21.93,21.93,0,0,0,43.85,0c0-.067,0-.134,0-.2C1708.762,663.8,1687.188,667.435,1672.3,660.388Z" fill="#eb9e94"/>
        </g>
      </g>
      <path id="Tracé_19" data-name="Tracé 19" d="M1768.74,686.509l-23.673,17.9H1643L1618.7,689.837a38.338,38.338,0,0,0-2.119,5.642c-.052.189-.1.372-.154.56l24.869,14.915H1747.13l24.387-18.438A55.041,55.041,0,0,0,1768.74,686.509Z" fill="#fff"/>
      <path id="Tracé_20" data-name="Tracé 20" d="M1715.778,675.807" fill="none" stroke="#b81d1b" stroke-miterlimit="10" stroke-width="1"/>
      <rect id="Rectangle_8" data-name="Rectangle 8" width="250.008" height="286.758" rx="10.458" transform="translate(1820.007 628.502)" fill="#fff"/>
      <path id="Tracé_21" data-name="Tracé 21" d="M2014.362,703.462l-129.591-12.195a2.467,2.467,0,0,0-1.263.206c-1.2.552-2.51,1.564-2.4,2.725l9.159,92.387a2.967,2.967,0,0,0,2.289,2.6l91.12,20.932a2.967,2.967,0,0,0,2.578-.624L2003.7,794.78a2.967,2.967,0,0,0,1.024-1.849l12.283-86.1A2.968,2.968,0,0,0,2014.362,703.462Z" fill="#ffbcb0"/>
      <g id="Groupe_6" data-name="Groupe 6">
        <path id="Tracé_22" data-name="Tracé 22" d="M2006.1,709.457c-.162,0-.319,0-.47-.016-30.178-2.158-76.781-7.835-121.849-13.323a1.147,1.147,0,0,1,.277-2.277c45.041,5.485,91.615,11.158,121.736,13.313,2.171.161,6.495-1.3,8.724-2.178a1.147,1.147,0,0,1,.843,2.133C2014.328,707.516,2009.246,709.457,2006.1,709.457Z" fill="#fff"/>
      </g>
      <path id="Tracé_23" data-name="Tracé 23" d="M1934.3,696.122c-.961-7.375-1.581-27.284,6.617-34.78,6.962-6.365,17.2-4.164,21.136-1.571,5.555,3.662,8.758,9.387,10.709,19.141a134.59,134.59,0,0,1,2.093,17.484c.093,1.334.177,2.516.271,3.568l3.156.3c-.114-1.149-.21-2.51-.319-4.081a137.491,137.491,0,0,0-2.147-17.879c-1.5-7.511-4.109-15.9-12.049-21.13-4.17-2.75-16.242-6.093-24.952,1.872-9.99,9.134-8.2,31.849-7.681,36.781Z" fill="#ffbcb0"/>
      <g id="Groupe_8" data-name="Groupe 8">
        <g id="Groupe_7" data-name="Groupe 7">
          <path id="Tracé_24" data-name="Tracé 24" d="M1961.638,716.288a1.947,1.947,0,0,1-1.917-2.3l.088-.482c1.886-10.28,3.836-20.908,3.985-34.358a27.384,27.384,0,0,0-5.29-16.94,14.708,14.708,0,0,0-9.383-5.864c-7.206-1.223-11.839.926-13.961,2.314-3.944,2.581-8.109,8.489-9.335,11.074-5.455,11.5-7.551,24.592-8.937,33.254-.319,1.99-.594,3.708-.864,5.115a1.947,1.947,0,0,1-3.824-.736c.259-1.346.53-3.037.843-4.994,1.422-8.882,3.57-22.3,9.264-34.308,1.355-2.856,5.888-9.5,10.711-12.656,4.5-2.943,10.444-3.971,16.754-2.9a18.543,18.543,0,0,1,11.816,7.326,31.353,31.353,0,0,1,6.1,19.359c-.153,13.784-2.134,24.579-4.049,35.018l-.089.483A1.947,1.947,0,0,1,1961.638,716.288Z" fill="#eb9e94"/>
        </g>
      </g>
      <path id="Rectangle_9" data-name="Rectangle 9" d="M13.354,0H65.723A13.353,13.353,0,0,1,79.076,13.353v4.359A13.353,13.353,0,0,1,65.723,31.066H13.354A13.354,13.354,0,0,1,0,17.712V13.354A13.354,13.354,0,0,1,13.354,0Z" transform="translate(1909.534 853.801)" fill="#ffbcb0"/>
      <rect id="Rectangle_10" data-name="Rectangle 10" width="79.076" height="31.066" rx="13.353" transform="translate(1652.093 911.933)" fill="#ffbcb0"/>
      <circle id="Ellipse_5" data-name="Ellipse 5" cx="5.399" cy="5.399" r="5.399" transform="translate(1925.468 828.144)" fill="#ffbcb0"/>
      <circle id="Ellipse_6" data-name="Ellipse 6" cx="5.399" cy="5.399" r="5.399" transform="translate(1943.673 828.144)" fill="#eb9e94"/>
      <path id="Tracé_25" data-name="Tracé 25" d="M1972.677,833.543a5.4,5.4,0,1,1-5.4-5.4A5.4,5.4,0,0,1,1972.677,833.543Z" fill="#ffbcb0"/>
      <circle id="Ellipse_7" data-name="Ellipse 7" cx="11.24" cy="11.24" r="11.24" transform="translate(2033.6 640.037) rotate(-22.5)" fill="#ffbcb0"/>
      <path id="Tracé_26" data-name="Tracé 26" d="M2049.964,646.12l4.22-4.22a1.187,1.187,0,1,0-1.678-1.678l-4.22,4.221-4.22-4.221a1.186,1.186,0,0,0-1.677,1.678l4.22,4.22-4.22,4.221a1.186,1.186,0,0,0,1.677,1.677l4.22-4.221,4.22,4.221a1.186,1.186,0,0,0,1.678-1.677Z" fill="#fff"/>
      <rect id="Rectangle_11" data-name="Rectangle 11" width="250.008" height="342.54" rx="10.458" transform="translate(2075.842 628.502)" fill="#fff"/>
      <rect id="Rectangle_12" data-name="Rectangle 12" width="79.076" height="31.066" rx="13.353" transform="translate(2162.092 905.519)" fill="#ffbcb0"/>
      <circle id="Ellipse_8" data-name="Ellipse 8" cx="5.399" cy="5.399" r="5.399" transform="translate(2178.026 878.715)" fill="#ffbcb0"/>
      <circle id="Ellipse_9" data-name="Ellipse 9" cx="5.399" cy="5.399" r="5.399" transform="translate(2196.231 878.715)" fill="#eb9e94"/>
      <path id="Tracé_27" data-name="Tracé 27" d="M2225.235,884.114a5.4,5.4,0,1,1-5.4-5.4A5.4,5.4,0,0,1,2225.235,884.114Z" fill="#ffbcb0"/>
      <circle id="Ellipse_10" data-name="Ellipse 10" cx="11.24" cy="11.24" r="11.24" transform="translate(2289.436 640.037) rotate(-22.5)" fill="#ffbcb0"/>
      <path id="Tracé_28" data-name="Tracé 28" d="M2305.8,646.12l4.22-4.22a1.186,1.186,0,0,0-1.677-1.678l-4.221,4.221-4.22-4.221a1.186,1.186,0,0,0-1.677,1.678l4.22,4.22-4.22,4.221a1.186,1.186,0,0,0,1.677,1.677l4.22-4.221,4.221,4.221a1.186,1.186,0,0,0,1.677-1.677Z" fill="#fff"/>
      <rect id="Rectangle_13" data-name="Rectangle 13" width="250.008" height="286.758" rx="10.458" transform="translate(1820.007 920.076)" fill="#fff"/>
      <circle id="Ellipse_11" data-name="Ellipse 11" cx="11.24" cy="11.24" r="11.24" transform="translate(2033.6 931.611) rotate(-22.5)" fill="#ffbcb0"/>
      <path id="Tracé_29" data-name="Tracé 29" d="M2049.964,937.694l4.22-4.22a1.186,1.186,0,0,0-1.678-1.677l-4.22,4.22-4.22-4.22a1.186,1.186,0,0,0-1.677,1.677l4.22,4.22-4.22,4.221a1.186,1.186,0,1,0,1.677,1.677l4.22-4.22,4.22,4.22a1.186,1.186,0,0,0,1.678-1.677Z" fill="#fff"/>
      <path id="Rectangle_14" data-name="Rectangle 14" d="M13.353,0h52.37A13.353,13.353,0,0,1,79.076,13.353v4.359A13.354,13.354,0,0,1,65.723,31.066H13.354A13.354,13.354,0,0,1,0,17.712V13.353A13.353,13.353,0,0,1,13.353,0Z" transform="translate(1908.632 1141.323)" fill="#ffbcb0"/>
      <circle id="Ellipse_12" data-name="Ellipse 12" cx="5.399" cy="5.399" r="5.399" transform="translate(1924.565 1111.079)" fill="#ffbcb0"/>
      <path id="Tracé_30" data-name="Tracé 30" d="M1953.569,1116.478a5.4,5.4,0,1,1-5.4-5.4A5.4,5.4,0,0,1,1953.569,1116.478Z" fill="#eb9e94"/>
      <circle id="Ellipse_13" data-name="Ellipse 13" cx="5.399" cy="5.399" r="5.399" transform="translate(1960.976 1111.079)" fill="#ffbcb0"/>
      <path id="Tracé_31" data-name="Tracé 31" d="M2028.4,1081.289,2007.75,959.281a3.191,3.191,0,0,0-3.777-2.6c-3.687.746-10.441,1.941-19.722,2.869-10.8,1.08-31.554,1.787-36.081,1.844-4.527-.057-25.281-.764-36.08-1.844-9.282-.928-16.036-2.123-19.723-2.869a3.191,3.191,0,0,0-3.777,2.6l-20.648,122.008a3.2,3.2,0,0,0,2.616,3.685c6.3,1.077,43.458,7.382,77.612,7.382,31.332,0,71.311-6.3,77.612-7.382A3.2,3.2,0,0,0,2028.4,1081.289Z" fill="#ffbcb0"/>
      <path id="Tracé_32" data-name="Tracé 32" d="M2009.073,967.457l-1.384-8.176a3.191,3.191,0,0,0-3.776-2.6c-3.688.746-10.442,1.941-19.723,2.869-10.8,1.08-31.553,1.787-36.081,1.844-4.527-.057-25.28-.764-36.08-1.844-9.282-.928-16.036-2.123-19.723-2.869a3.191,3.191,0,0,0-3.777,2.6l-1.262,7.459c15.3,2.215,40.286,5.215,63.844,5.215C1970.46,971.955,1993.1,969.551,2009.073,967.457Z" fill="#eb9e94"/>
      <path id="Tracé_33" data-name="Tracé 33" d="M1952.557,966.2a4.387,4.387,0,1,1-4.387-4.387A4.387,4.387,0,0,1,1952.557,966.2Z" fill="#fff"/>
      <g id="Groupe_9" data-name="Groupe 9">
        <path id="Tracé_34" data-name="Tracé 34" d="M1884.638,1007.118q-1.129,0-2.265-.108a1.479,1.479,0,1,1,.281-2.944c6.487.62,12.919-1.842,18.585-7.125,8.973-8.365,15.02-22.849,14.707-35.223a1.479,1.479,0,0,1,1.441-1.516,1.5,1.5,0,0,1,1.516,1.441c.333,13.158-6.1,28.562-15.647,37.462C1897.6,1004.376,1891.208,1007.117,1884.638,1007.118Z" fill="#fff"/>
      </g>
      <g id="Groupe_10" data-name="Groupe 10">
        <path id="Tracé_35" data-name="Tracé 35" d="M2012.47,1007.118c-6.57,0-12.963-2.741-18.616-8.012-9.546-8.9-15.981-24.3-15.648-37.463a1.458,1.458,0,0,1,1.516-1.441,1.48,1.48,0,0,1,1.441,1.516c-.313,12.374,5.734,26.858,14.707,35.224,5.664,5.281,12.086,7.74,18.584,7.124a1.479,1.479,0,1,1,.281,2.944Q2013.6,1007.118,2012.47,1007.118Z" fill="#fff"/>
      </g>
      <path id="Tracé_36" data-name="Tracé 36" d="M2299.944,692.017l-40.386-25.778a3.175,3.175,0,0,0-.937-.405c-2.857-.72-17.37-4.4-26.168-7.141-1.811-.565-5.744-3.836-9.055-6.591-.268-.224-5.625,5.948-21.294,5.948-16.609,0-21.965-6.179-22.242-5.948-3.31,2.755-7.243,6.026-9.054,6.591-8.8,2.741-23.311,6.421-26.168,7.141a3.175,3.175,0,0,0-.937.405l-40.386,25.778a3.215,3.215,0,0,0-1.054,4.318l18.1,31.341a3.216,3.216,0,0,0,2.97,1.6l10.6-.614a3.214,3.214,0,0,1,3.4,3.187l.755,110.261a3.215,3.215,0,0,0,3.207,3.193l45.861.1a3.174,3.174,0,0,0,.643.065l13.832-.032,13.833.032a3.174,3.174,0,0,0,.643-.065l45.861-.1a3.215,3.215,0,0,0,3.207-3.193l.754-110.261a3.215,3.215,0,0,1,3.4-3.187l10.6.614a3.216,3.216,0,0,0,2.97-1.6l18.1-31.341A3.216,3.216,0,0,0,2299.944,692.017Z" fill="#ffbcb0"/>
      <path id="Tracé_37" data-name="Tracé 37" d="M2216.262,693.962a2.35,2.35,0,0,0,3.3-.189c4.088-4.523,14.335-17.861,11.854-35.559a69.556,69.556,0,0,1-8.019-6.113c-.011-.01-.036,0-.066.009a39.689,39.689,0,0,1-21.179,30.283c-.981-.43-19.357-8.764-22.219-30.282-.033-.014-.059-.021-.072-.01a69.472,69.472,0,0,1-8.019,6.113c-2.48,17.7,7.767,31.036,11.855,35.559a2.349,2.349,0,0,0,3.3.189l15.155-11.51Z" fill="#fff"/>
      <path id="Tracé_38" data-name="Tracé 38" d="M2204.72,693.346a2.689,2.689,0,1,1-2.689-2.689A2.689,2.689,0,0,1,2204.72,693.346Z" fill="#fff"/>
      <circle id="Ellipse_14" data-name="Ellipse 14" cx="2.69" cy="2.69" r="2.69" transform="translate(2199.341 706.122)" fill="#fff"/>
      <circle id="Ellipse_15" data-name="Ellipse 15" cx="2.69" cy="2.69" r="2.69" transform="translate(2199.341 721.586)" fill="#fff"/>
      <rect id="Rectangle_15" data-name="Rectangle 15" width="23.399" height="5.722" rx="0.879" transform="translate(2227.973 710.266)" fill="#eb9e94"/>
      <g id="Groupe_16" data-name="Groupe 16">
        <rect id="Rectangle_16" data-name="Rectangle 16" width="428.262" height="266.028" rx="28.185" transform="translate(1368.783 991.933)" fill="#282444"/>
        <rect id="Rectangle_17" data-name="Rectangle 17" width="66.503" height="53.405" rx="10.403" transform="translate(1394.002 1087.671)" fill="#f39200"/>
        <rect id="Rectangle_18" data-name="Rectangle 18" width="236.165" height="20.906" transform="translate(1394.002 1019.348)" fill="#fff"/>
        <rect id="Rectangle_19" data-name="Rectangle 19" width="236.165" height="20.906" transform="translate(1394.002 1178.938)" fill="#fff"/>
        <rect id="Rectangle_20" data-name="Rectangle 20" width="158.23" height="9.561" transform="translate(1394.002 1214.408)" fill="#eb9e94"/>
        <circle id="Ellipse_16" data-name="Ellipse 16" cx="25.554" cy="25.554" r="25.554" transform="translate(1703.715 1190.662) rotate(-22.5)" fill="#e30613"/>
        <g id="Groupe_15" data-name="Groupe 15">
          <g id="Groupe_11" data-name="Groupe 11">
            <path id="Tracé_39" data-name="Tracé 39" d="M1731.844,1051.215a1.589,1.589,0,0,1-1.5-2.3,26.162,26.162,0,0,0-.125-23.781,1.589,1.589,0,1,1,2.821-1.462,29.344,29.344,0,0,1,.14,26.677A1.588,1.588,0,0,1,1731.844,1051.215Z" fill="#fff7f4"/>
          </g>
          <g id="Groupe_12" data-name="Groupe 12">
            <path id="Tracé_40" data-name="Tracé 40" d="M1738.235,1054.267a1.589,1.589,0,0,1-1.5-2.3,33.247,33.247,0,0,0-.335-30.306,1.589,1.589,0,0,1,2.811-1.482,36.436,36.436,0,0,1,.365,33.21A1.586,1.586,0,0,1,1738.235,1054.267Z" fill="#fff7f4"/>
          </g>
          <g id="Groupe_13" data-name="Groupe 13">
            <path id="Tracé_41" data-name="Tracé 41" d="M1743.979,1057.784a1.569,1.569,0,0,1-.812-.176,1.589,1.589,0,0,1-.68-2.141,39.968,39.968,0,0,0-.372-37.353,1.589,1.589,0,0,1,2.793-1.517,43.153,43.153,0,0,1,.4,40.331A1.588,1.588,0,0,1,1743.979,1057.784Z" fill="#fff7f4"/>
          </g>
          <g id="Groupe_14" data-name="Groupe 14">
            <path id="Tracé_42" data-name="Tracé 42" d="M1750.726,1061.059a1.591,1.591,0,0,1-1.495-2.313,47.477,47.477,0,0,0-.595-44.337,1.589,1.589,0,1,1,2.788-1.524,50.661,50.661,0,0,1,.635,47.312A1.588,1.588,0,0,1,1750.726,1061.059Z" fill="#fff7f4"/>
          </g>
        </g>
      </g>
      <g id="Groupe_19" data-name="Groupe 19">
        <g id="Groupe_17" data-name="Groupe 17">
          <path id="Tracé_43" data-name="Tracé 43" d="M1538.455,570.416H1503.04l36.425-109.363h32.5Z" fill="#e30613"/>
          <path id="Tracé_44" data-name="Tracé 44" d="M1573.87,570.416h-35.415l33.51-109.363h32.5Z" fill="#fff"/>
          <path id="Tracé_45" data-name="Tracé 45" d="M1609.285,570.416H1573.87l30.6-109.363h32.5Z" fill="#e30613"/>
          <path id="Tracé_46" data-name="Tracé 46" d="M1644.7,570.416h-35.415l27.682-109.363h32.5Z" fill="#fff"/>
          <path id="Tracé_47" data-name="Tracé 47" d="M1680.114,570.416H1644.7l24.769-109.363h32.5Z" fill="#e30613"/>
          <path id="Tracé_48" data-name="Tracé 48" d="M1715.529,570.416h-35.415l21.855-109.363h32.5Z" fill="#fff"/>
          <path id="Tracé_49" data-name="Tracé 49" d="M1750.944,570.416h-35.415l18.941-109.363h32.5Z" fill="#e30613"/>
          <path id="Tracé_50" data-name="Tracé 50" d="M1786.359,570.416h-35.415l16.027-109.363h32.5Z" fill="#fff"/>
          <path id="Tracé_51" data-name="Tracé 51" d="M1821.774,570.416h-35.415l13.113-109.363h32.5Z" fill="#e30613"/>
          <path id="Tracé_52" data-name="Tracé 52" d="M1857.189,570.416h-35.415l10.2-109.363h32.5Z" fill="#fff"/>
          <path id="Tracé_53" data-name="Tracé 53" d="M1892.6,570.416h-35.415l7.285-109.363h32.5Z" fill="#e30613"/>
          <path id="Tracé_54" data-name="Tracé 54" d="M1928.019,570.416H1892.6l4.371-109.363h32.5Z" fill="#fff"/>
          <path id="Tracé_55" data-name="Tracé 55" d="M1963.434,570.416h-35.415l1.457-109.363h32.5Z" fill="#e30613"/>
          <path id="Tracé_56" data-name="Tracé 56" d="M1998.849,570.416h-35.415l-1.457-109.363h32.5Z" fill="#fff"/>
          <path id="Tracé_57" data-name="Tracé 57" d="M2034.264,570.416h-35.415l-4.371-109.363h32.5Z" fill="#e30613"/>
          <path id="Tracé_58" data-name="Tracé 58" d="M2069.679,570.416h-35.415l-7.285-109.363h32.5Z" fill="#fff"/>
          <path id="Tracé_59" data-name="Tracé 59" d="M2105.094,570.416h-35.415l-10.2-109.363h32.5Z" fill="#e30613"/>
          <path id="Tracé_60" data-name="Tracé 60" d="M2140.509,570.416h-35.415l-13.113-109.363h32.5Z" fill="#fff"/>
          <path id="Tracé_61" data-name="Tracé 61" d="M2175.924,570.416h-35.415l-16.027-109.363h32.5Z" fill="#e30613"/>
          <path id="Tracé_62" data-name="Tracé 62" d="M2211.338,570.416h-35.415l-18.941-109.363h32.5Z" fill="#fff"/>
          <path id="Tracé_63" data-name="Tracé 63" d="M2246.753,570.416h-35.415l-21.854-109.363h32.5Z" fill="#e30613"/>
          <path id="Tracé_64" data-name="Tracé 64" d="M2282.168,570.416h-35.415l-24.769-109.363h32.5Z" fill="#fff"/>
          <path id="Tracé_65" data-name="Tracé 65" d="M2317.583,570.416h-35.415l-27.683-109.363h32.5Z" fill="#e30613"/>
          <path id="Tracé_66" data-name="Tracé 66" d="M2353,570.416h-35.415l-30.6-109.363h32.5Z" fill="#fff"/>
          <path id="Tracé_67" data-name="Tracé 67" d="M2388.413,570.416H2353l-33.51-109.363h32.5Z" fill="#e30613"/>
        </g>
        <g id="Groupe_18" data-name="Groupe 18">
          <path id="Rectangle_21" data-name="Rectangle 21" d="M0,0H35.415a0,0,0,0,1,0,0V35.054A10.744,10.744,0,0,1,24.671,45.8H10.744A10.744,10.744,0,0,1,0,35.054V0A0,0,0,0,1,0,0Z" transform="translate(1503.04 570.416)" fill="#be1622"/>
          <path id="Rectangle_22" data-name="Rectangle 22" d="M0,0H35.415a0,0,0,0,1,0,0V35.054A10.744,10.744,0,0,1,24.671,45.8H10.744A10.744,10.744,0,0,1,0,35.054V0A0,0,0,0,1,0,0Z" transform="translate(1538.454 570.416)" fill="#ededed"/>
          <path id="Rectangle_23" data-name="Rectangle 23" d="M0,0H35.415a0,0,0,0,1,0,0V35.054A10.744,10.744,0,0,1,24.671,45.8H10.744A10.744,10.744,0,0,1,0,35.054V0A0,0,0,0,1,0,0Z" transform="translate(1573.87 570.416)" fill="#be1622"/>
          <path id="Rectangle_24" data-name="Rectangle 24" d="M0,0H35.415a0,0,0,0,1,0,0V35.054A10.744,10.744,0,0,1,24.671,45.8H10.744A10.744,10.744,0,0,1,0,35.054V0A0,0,0,0,1,0,0Z" transform="translate(1609.284 570.416)" fill="#ededed"/>
          <path id="Rectangle_25" data-name="Rectangle 25" d="M0,0H35.415a0,0,0,0,1,0,0V35.054A10.744,10.744,0,0,1,24.671,45.8H10.744A10.744,10.744,0,0,1,0,35.054V0A0,0,0,0,1,0,0Z" transform="translate(1644.699 570.416)" fill="#be1622"/>
          <path id="Rectangle_26" data-name="Rectangle 26" d="M0,0H35.415a0,0,0,0,1,0,0V35.054A10.744,10.744,0,0,1,24.671,45.8H10.744A10.744,10.744,0,0,1,0,35.054V0A0,0,0,0,1,0,0Z" transform="translate(1680.114 570.416)" fill="#ededed"/>
          <path id="Rectangle_27" data-name="Rectangle 27" d="M0,0H35.415a0,0,0,0,1,0,0V35.054A10.744,10.744,0,0,1,24.671,45.8H10.744A10.744,10.744,0,0,1,0,35.054V0A0,0,0,0,1,0,0Z" transform="translate(1715.529 570.416)" fill="#be1622"/>
          <path id="Rectangle_28" data-name="Rectangle 28" d="M0,0H35.415a0,0,0,0,1,0,0V35.054A10.744,10.744,0,0,1,24.671,45.8H10.744A10.744,10.744,0,0,1,0,35.054V0A0,0,0,0,1,0,0Z" transform="translate(1750.944 570.416)" fill="#ededed"/>
          <path id="Rectangle_29" data-name="Rectangle 29" d="M0,0H35.415a0,0,0,0,1,0,0V35.054A10.744,10.744,0,0,1,24.671,45.8H10.744A10.744,10.744,0,0,1,0,35.054V0A0,0,0,0,1,0,0Z" transform="translate(1786.359 570.416)" fill="#be1622"/>
          <path id="Rectangle_30" data-name="Rectangle 30" d="M0,0H35.415a0,0,0,0,1,0,0V35.054A10.744,10.744,0,0,1,24.671,45.8H10.744A10.744,10.744,0,0,1,0,35.054V0A0,0,0,0,1,0,0Z" transform="translate(1821.774 570.416)" fill="#ededed"/>
          <path id="Rectangle_31" data-name="Rectangle 31" d="M0,0H35.415a0,0,0,0,1,0,0V35.054A10.744,10.744,0,0,1,24.671,45.8H10.744A10.744,10.744,0,0,1,0,35.054V0A0,0,0,0,1,0,0Z" transform="translate(1857.189 570.416)" fill="#be1622"/>
          <path id="Rectangle_32" data-name="Rectangle 32" d="M0,0H35.415a0,0,0,0,1,0,0V35.054A10.744,10.744,0,0,1,24.671,45.8H10.744A10.744,10.744,0,0,1,0,35.054V0A0,0,0,0,1,0,0Z" transform="translate(1892.604 570.416)" fill="#ededed"/>
          <path id="Rectangle_33" data-name="Rectangle 33" d="M0,0H35.415a0,0,0,0,1,0,0V35.054A10.744,10.744,0,0,1,24.671,45.8H10.744A10.744,10.744,0,0,1,0,35.054V0A0,0,0,0,1,0,0Z" transform="translate(1928.019 570.416)" fill="#be1622"/>
          <path id="Rectangle_34" data-name="Rectangle 34" d="M0,0H35.415a0,0,0,0,1,0,0V35.054A10.744,10.744,0,0,1,24.671,45.8H10.744A10.744,10.744,0,0,1,0,35.054V0A0,0,0,0,1,0,0Z" transform="translate(1963.434 570.416)" fill="#ededed"/>
          <path id="Rectangle_35" data-name="Rectangle 35" d="M0,0H35.415a0,0,0,0,1,0,0V35.054A10.744,10.744,0,0,1,24.671,45.8H10.744A10.744,10.744,0,0,1,0,35.054V0A0,0,0,0,1,0,0Z" transform="translate(1998.849 570.416)" fill="#be1622"/>
          <path id="Rectangle_36" data-name="Rectangle 36" d="M0,0H35.415a0,0,0,0,1,0,0V35.054A10.744,10.744,0,0,1,24.671,45.8H10.744A10.744,10.744,0,0,1,0,35.054V0A0,0,0,0,1,0,0Z" transform="translate(2034.264 570.416)" fill="#ededed"/>
          <path id="Rectangle_37" data-name="Rectangle 37" d="M0,0H35.415a0,0,0,0,1,0,0V35.054A10.744,10.744,0,0,1,24.671,45.8H10.744A10.744,10.744,0,0,1,0,35.054V0A0,0,0,0,1,0,0Z" transform="translate(2069.679 570.416)" fill="#be1622"/>
          <path id="Rectangle_38" data-name="Rectangle 38" d="M0,0H35.415a0,0,0,0,1,0,0V35.054A10.744,10.744,0,0,1,24.671,45.8H10.744A10.744,10.744,0,0,1,0,35.054V0A0,0,0,0,1,0,0Z" transform="translate(2105.094 570.416)" fill="#ededed"/>
          <path id="Rectangle_39" data-name="Rectangle 39" d="M0,0H35.415a0,0,0,0,1,0,0V35.054A10.744,10.744,0,0,1,24.671,45.8H10.744A10.744,10.744,0,0,1,0,35.054V0A0,0,0,0,1,0,0Z" transform="translate(2140.509 570.416)" fill="#be1622"/>
          <path id="Rectangle_40" data-name="Rectangle 40" d="M0,0H35.415a0,0,0,0,1,0,0V35.054A10.744,10.744,0,0,1,24.671,45.8H10.744A10.744,10.744,0,0,1,0,35.054V0A0,0,0,0,1,0,0Z" transform="translate(2175.924 570.416)" fill="#ededed"/>
          <path id="Rectangle_41" data-name="Rectangle 41" d="M0,0H35.415a0,0,0,0,1,0,0V35.054A10.744,10.744,0,0,1,24.671,45.8H10.744A10.744,10.744,0,0,1,0,35.054V0A0,0,0,0,1,0,0Z" transform="translate(2211.338 570.416)" fill="#be1622"/>
          <path id="Rectangle_42" data-name="Rectangle 42" d="M0,0H35.415a0,0,0,0,1,0,0V35.054A10.744,10.744,0,0,1,24.671,45.8H10.744A10.744,10.744,0,0,1,0,35.054V0A0,0,0,0,1,0,0Z" transform="translate(2246.753 570.416)" fill="#ededed"/>
          <path id="Rectangle_43" data-name="Rectangle 43" d="M0,0H35.415a0,0,0,0,1,0,0V35.054A10.744,10.744,0,0,1,24.671,45.8H10.744A10.744,10.744,0,0,1,0,35.054V0A0,0,0,0,1,0,0Z" transform="translate(2282.168 570.416)" fill="#be1622"/>
          <path id="Rectangle_44" data-name="Rectangle 44" d="M0,0H35.415a0,0,0,0,1,0,0V35.054A10.744,10.744,0,0,1,24.671,45.8H10.744A10.744,10.744,0,0,1,0,35.054V0A0,0,0,0,1,0,0Z" transform="translate(2317.583 570.416)" fill="#ededed"/>
          <path id="Rectangle_45" data-name="Rectangle 45" d="M0,0H35.415a0,0,0,0,1,0,0V35.054A10.744,10.744,0,0,1,24.671,45.8H10.744A10.744,10.744,0,0,1,0,35.054V0A0,0,0,0,1,0,0Z" transform="translate(2352.998 570.416)" fill="#be1622"/>
        </g>
      </g>
    </g>
    <g id="Groupe_37" data-name="Groupe 37">
      <g id="Groupe_23" data-name="Groupe 23">
        <path id="Tracé_68" data-name="Tracé 68" d="M1668.974,1333.241H1441.4a6,6,0,0,0-6,6V1586.71a6,6,0,0,0,5.964,6l15.666.088a6,6,0,0,1,5.318,3.29l10.906,21.558.138.262h195.581a1.534,1.534,0,0,0,1.534-1.534v-281.6A1.534,1.534,0,0,0,1668.974,1333.241Z" fill="#ffbcb0"/>
        <path id="Tracé_69" data-name="Tracé 69" d="M1473.4,1333.247h-14.963v258.226a2.24,2.24,0,0,0,1.15,2.006,5.98,5.98,0,0,1,2.589,2.612l11.224,21.814Z" fill="#eb9e94"/>
        <g id="Groupe_21" data-name="Groupe 21">
          <path id="Tracé_70" data-name="Tracé 70" d="M1575.009,1336.243a3.432,3.432,0,0,1-3.432-3.432V1318.3a34.01,34.01,0,0,0-68.02,0v14.509a3.432,3.432,0,0,1-6.865,0V1318.3a40.875,40.875,0,0,1,81.749,0v14.509A3.432,3.432,0,0,1,1575.009,1336.243Z" fill="#eb9e94"/>
        </g>
        <g id="Groupe_22" data-name="Groupe 22">
          <path id="Tracé_71" data-name="Tracé 71" d="M1609.131,1365.919a3.432,3.432,0,0,1-3.432-3.432V1318.3a34.01,34.01,0,1,0-68.02,0v44.185a3.432,3.432,0,0,1-6.864,0V1318.3a40.874,40.874,0,1,1,81.748,0v44.185A3.432,3.432,0,0,1,1609.131,1365.919Z" fill="#eb9e94"/>
        </g>
      </g>
      <g id="Groupe_28" data-name="Groupe 28">
        <path id="Tracé_72" data-name="Tracé 72" d="M1769.833,1464.837H1892.2a3.225,3.225,0,0,1,3.225,3.226v133.068a3.225,3.225,0,0,1-3.207,3.225l-8.423.047a3.226,3.226,0,0,0-2.86,1.769l-5.864,11.592-.074.141H1769.833a.824.824,0,0,1-.825-.825V1465.662A.825.825,0,0,1,1769.833,1464.837Z" fill="#282444"/>
        <g id="Groupe_25" data-name="Groupe 25">
          <g id="Groupe_24" data-name="Groupe 24">
            <path id="Tracé_73" data-name="Tracé 73" d="M1820.359,1466.451a1.845,1.845,0,0,0,1.846-1.845v-7.8a18.288,18.288,0,1,1,36.575,0v7.8a1.845,1.845,0,0,0,3.691,0v-7.8a21.978,21.978,0,1,0-43.957,0v7.8A1.845,1.845,0,0,0,1820.359,1466.451Z" fill="#f39200"/>
          </g>
        </g>
        <g id="Groupe_27" data-name="Groupe 27">
          <g id="Groupe_26" data-name="Groupe 26">
            <path id="Tracé_74" data-name="Tracé 74" d="M1802.011,1482.409a1.846,1.846,0,0,0,1.846-1.846v-23.758a18.287,18.287,0,1,1,36.575,0v23.758a1.846,1.846,0,1,0,3.691,0v-23.758a21.979,21.979,0,1,0-43.957,0v23.758A1.846,1.846,0,0,0,1802.011,1482.409Z" fill="#f39200"/>
          </g>
        </g>
      </g>
      <g id="Groupe_33" data-name="Groupe 33">
        <path id="Tracé_75" data-name="Tracé 75" d="M1523.34,1487.035H1402.625a3.182,3.182,0,0,0-3.182,3.181v131.269a3.181,3.181,0,0,0,3.164,3.181l8.31.047a3.181,3.181,0,0,1,2.82,1.745l5.786,11.436.072.139H1523.34a.814.814,0,0,0,.814-.813v-149.37A.814.814,0,0,0,1523.34,1487.035Z" fill="#e30613"/>
        <path id="Tracé_76" data-name="Tracé 76" d="M1419.6,1487.038h-7.937v136.974a1.188,1.188,0,0,0,.61,1.064,3.17,3.17,0,0,1,1.374,1.385l5.953,11.571Z" fill="#9b0013"/>
        <g id="Groupe_30" data-name="Groupe 30">
          <g id="Groupe_29" data-name="Groupe 29">
            <path id="Tracé_77" data-name="Tracé 77" d="M1473.5,1488.627a1.82,1.82,0,0,1-1.821-1.82v-7.7a18.04,18.04,0,1,0-36.08,0v7.7a1.82,1.82,0,0,1-3.641,0v-7.7a21.681,21.681,0,1,1,43.362,0v7.7A1.82,1.82,0,0,1,1473.5,1488.627Z" fill="#282444"/>
          </g>
        </g>
        <g id="Groupe_32" data-name="Groupe 32">
          <g id="Groupe_31" data-name="Groupe 31">
            <path id="Tracé_78" data-name="Tracé 78" d="M1491.6,1504.369a1.821,1.821,0,0,1-1.821-1.821v-23.437a18.04,18.04,0,1,0-36.08,0v23.437a1.82,1.82,0,1,1-3.641,0v-23.437a21.681,21.681,0,1,1,43.362,0v23.437A1.82,1.82,0,0,1,1491.6,1504.369Z" fill="#282444"/>
          </g>
        </g>
      </g>
      <g id="Groupe_36" data-name="Groupe 36">
        <path id="Tracé_79" data-name="Tracé 79" d="M1785.278,1402.752h-188.1a4.957,4.957,0,0,0-4.957,4.957v204.54a4.957,4.957,0,0,0,4.929,4.957l12.949.073A4.954,4.954,0,0,1,1614.5,1620l9.015,17.818.114.217h161.652a1.268,1.268,0,0,0,1.268-1.267V1404.02A1.268,1.268,0,0,0,1785.278,1402.752Z" fill="#f39200"/>
        <g id="Groupe_34" data-name="Groupe 34">
          <path id="Tracé_80" data-name="Tracé 80" d="M1707.855,1404.438a3.432,3.432,0,0,1-3.432-3.432v-11.771a26.946,26.946,0,1,0-53.893,0v11.771a3.432,3.432,0,0,1-6.865,0v-11.771a33.811,33.811,0,1,1,67.623,0v11.771A3.432,3.432,0,0,1,1707.855,1404.438Z" fill="#9b0013"/>
        </g>
        <g id="Groupe_35" data-name="Groupe 35">
          <path id="Tracé_81" data-name="Tracé 81" d="M1735.54,1428.516a3.432,3.432,0,0,1-3.432-3.432v-35.849a26.947,26.947,0,1,0-53.894,0v35.849a3.432,3.432,0,1,1-6.864,0v-35.849a33.811,33.811,0,1,1,67.622,0v35.849A3.432,3.432,0,0,1,1735.54,1428.516Z" fill="#e30613"/>
        </g>
        <path id="Tracé_82" data-name="Tracé 82" d="M1623.628,1402.757h-12.367v213.429a1.851,1.851,0,0,0,.951,1.658,4.939,4.939,0,0,1,2.14,2.159l9.276,18.029Z" fill="#f9a730"/>
      </g>
    </g>
    <g id="Groupe_43" data-name="Groupe 43">
      <g id="Groupe_40" data-name="Groupe 40">
        <g id="Groupe_38" data-name="Groupe 38">
          <path id="Tracé_83" data-name="Tracé 83" d="M588.833,1047.477l-26.472-139.66a3.94,3.94,0,0,0-3.871-3.205H430.8a3.94,3.94,0,0,0-3.871,3.205l-26.472,139.66a3.94,3.94,0,0,0,3.87,4.673H584.963A3.939,3.939,0,0,0,588.833,1047.477Z" fill="#f39200"/>
          <path id="Tracé_84" data-name="Tracé 84" d="M502.079,1094.652c-1.635-15.378,8.2-29.717,11.058-33.514a.609.609,0,0,0-.488-.976H476.643a.609.609,0,0,0-.488.976c2.856,3.8,12.693,18.136,11.058,33.514-3.3,31.043-29.33,58.575-29.33,83.716,0,11.7,6.224,29.979,8.205,36.251a2.467,2.467,0,0,0,2.353,1.722h52.41a2.466,2.466,0,0,0,2.353-1.722c1.981-6.272,8.205-24.551,8.205-36.251C531.409,1153.227,505.379,1125.695,502.079,1094.652Z" fill="#282444"/>
          <path id="Tracé_85" data-name="Tracé 85" d="M498.725,1161.707a14.228,14.228,0,0,0-10.419-7.335,17.192,17.192,0,0,0-7.917.3c.069-2.764.086-5.543.044-8.32a.77.77,0,0,0-.77-.758H422.022a.771.771,0,0,0-.771.758c-.444,29.409,5.722,59.005,10.95,69.162a1.513,1.513,0,0,0,1.344.823h34.594a1.512,1.512,0,0,0,1.344-.823,69.078,69.078,0,0,0,4.634-13.393c7.27-2.631,19.513-10.287,25.021-23.148C501.1,1174.4,501.73,1167.288,498.725,1161.707Zm-4.77,15.05c-3.926,9.168-12.164,15.456-18.245,18.56a228.657,228.657,0,0,0,4.438-34.512,10.826,10.826,0,0,1,7.158-.885,8.663,8.663,0,0,1,6.455,4.46C495.864,1168.286,495.336,1173.534,493.955,1176.757Z" fill="#e30613"/>
        </g>
        <g id="Groupe_39" data-name="Groupe 39">
          <path id="Tracé_86" data-name="Tracé 86" d="M592.311,1131.915c-9.318-13.911-2.295-38.57,20.015-49.925,5.252-2.673,12.335-7.772,14.7-14.842.68-2.038.071-3.859.595-3.823.657.045.848,4.431.9,5.622.4,9.116-1.616,16.6-2.474,20.914-2.843,14.291,1.8,33.114-11.177,45.877C605.529,1144.921,596.938,1138.822,592.311,1131.915Z" fill="#346e00"/>
          <path id="Tracé_87" data-name="Tracé 87" d="M572.325,1076.055c.49.047-.6.68-.1,2.285.709,2.268,2.6,3.621,3.745,4.875,4.108,4.495,5.019,10.271,4.732,16.178-.21,4.319-3.507,10.57-6.592,8.405-14.763-10.365-4.558-25.092-3.358-27.684C572.21,1076.961,571.694,1075.994,572.325,1076.055Z" fill="#346e00"/>
          <path id="Tracé_88" data-name="Tracé 88" d="M585.79,1154.64c6.928-6.85-2.213-45.447-33.508-64.475-3.235-1.967-8.534-5.7-9.524-4.935-.5.383,2.9,1,1.878,4.273-11.287,35.962,26.477,35.962,28.426,58.953C573.637,1155.246,581.891,1158.495,585.79,1154.64Z" fill="#7ca417"/>
          <path id="Tracé_89" data-name="Tracé 89" d="M663.058,1093.836c-2.064,1.917-8.412,1.173-14.344,3.77-5.544,2.427-7.925,7.943-10.377,15.87-4.21,13.613-16.2,34.413-33.011,34.561-27.188.241-2.586-30.653,21.719-47.362,10.493-7.214,24.933-7.349,31.418-7.432C662.306,1093.193,664.016,1092.946,663.058,1093.836Z" fill="#7ca417"/>
          <path id="Tracé_90" data-name="Tracé 90" d="M590.063,1063.55c2.069-1-.7,7.228,9.67,17.766,22.127,22.481,17.555,67.88-5.622,70.164-9.207.907-43.463-35.766-6.522-78.71C591.951,1067.7,589.293,1063.921,590.063,1063.55Z" fill="#7ca417"/>
          <path id="Tracé_91" data-name="Tracé 91" d="M614.8,1097.8c.133-1.584,5.64,14.69,6.3,22.647,1.424,17.266-.807,26.768-7.513,33.957-7.8,8.368-21.058,11.8-28.919,4.273-7.027-6.731-7.421-18.665-1.349-26.986,4.331-5.936,5.814-6.175,17.766-18.89C608.469,1104.94,614.185,1105.1,614.8,1097.8Z" fill="#9fbc50"/>
          <path id="Tracé_92" data-name="Tracé 92" d="M630.663,1151.68a4.2,4.2,0,0,0-4.186-3.846H567.505a4.2,4.2,0,0,0-4.185,3.846l-2.623,29.557v4.235c0,16.1,13.05,30.621,29.147,30.621h14.294c16.1,0,29.147-14.524,29.147-30.621v-4.235Z" fill="#eb9e94"/>
        </g>
      </g>
      <g id="Groupe_42" data-name="Groupe 42">
        <path id="Rectangle_46" data-name="Rectangle 46" d="M3.411,0H291.189a5.191,5.191,0,0,1,5.191,5.191v8.957a5.191,5.191,0,0,1-5.191,5.191H3.411A3.411,3.411,0,0,1,0,15.928V3.411A3.411,3.411,0,0,1,3.411,0Z" transform="translate(669.872 1236.608) rotate(180)" fill="#7f4730"/>
        <g id="Groupe_41" data-name="Groupe 41">
          <path id="Tracé_93" data-name="Tracé 93" d="M671.11,1638.033h-6.827a3.392,3.392,0,0,1-3.269-2.486l-94.393-400.806a5.561,5.561,0,0,1,5.359-7.046h14.206a5.56,5.56,0,0,1,5.4,4.225L674.4,1633.826A3.391,3.391,0,0,1,671.11,1638.033Z" fill="#7f4730"/>
          <path id="Tracé_94" data-name="Tracé 94" d="M587.33,1638.033H580.5a3.391,3.391,0,0,1-3.268-2.486l-39.811-400.806a5.561,5.561,0,0,1,5.359-7.046h14.206a5.561,5.561,0,0,1,5.4,4.225l28.236,401.906A3.392,3.392,0,0,1,587.33,1638.033Z" fill="#7f4730"/>
          <path id="Tracé_95" data-name="Tracé 95" d="M372.254,1638.033h6.827a3.392,3.392,0,0,0,3.269-2.486l111.071-400.806a5.562,5.562,0,0,0-5.359-7.046H473.855a5.562,5.562,0,0,0-5.4,4.225l-99.5,401.906A3.392,3.392,0,0,0,372.254,1638.033Z" fill="#7f4730"/>
        </g>
      </g>
    </g>
    <g id="Groupe_44" data-name="Groupe 44">
      <path id="Tracé_96" data-name="Tracé 96" d="M2369.428,1705.253c-7.317-8.4-15.436-17.213-24.516-26.466-71.962-73.338-94.28-55.6-126.125-103.1-35.062-52.3-44.8-108.765-64.287-221.7-11.551-66.962-11.687-68.486-22.874-109.095-15.855-57.558-29.822-69.661-51.877-146.983-8.57-30.046-8.98-37.05-20.477-75.442-7.421-24.78-15.609-52.122-28.412-86.726-18.877-51.023-31.472-73.732-29.684-108.8.95-18.622,5.441-30.662,14.77-37.713,11.4-8.615,26.436-8.13,35.4-3.7,7.974,3.946,16.041,13.092,31.535,41.828,29.65,54.99,41.9,91.075,50.217,106.575,12.86,23.978,31.626,46.325,40.486,68.376.1.248.345.359.727.364,3.9.043,19.155-17.547,49.925-3.432,16.944,7.772,22.6,16.536,23.852,15.5,44.689-37.05,85.667,16.143,86.652,15.031,18.156-20.507,49.174-2.781,59.571,7.984,52.91,54.784,75.447,79,114.409,131.869,23.836,32.341,23.1,64.931,28.771,87.083,39.634,154.9,24.109,147.441,47.018,212.733,25.582,72.909,58.515,66.81,119.1,186.36,10.406,20.533,17.682,36.646,22.705,49.453Z" fill="#ec7d40"/>
      <path id="Tracé_97" data-name="Tracé 97" d="M2009.867,805.5c-5.088,14.374,14.946,47.22,22.581,48.465,11.575,1.889,43.213-8.491,44.257-16.029,1.644-11.87-7.014-30.968-20.1-44.683-2.6-2.727-6.953-5.573-14.069-6.6a35.431,35.431,0,0,0-20.386,3.63C2019.986,791.446,2013.314,795.762,2009.867,805.5Z" fill="#f79556"/>
      <path id="Tracé_98" data-name="Tracé 98" d="M2078.4,1234.2c-31.915-51.823-61.832-73.306-80.7-83.654-9.608-5.27-28.594-14.368-47.891-9.24-3.932,1.045-15.524,4.124-18.969,13.174-1.946,5.111-.561,10.2.7,13.766,8.663,24.508,29.652,27.446,41.038,51.878,14.736,31.622,7.638,41.509,28.254,84.694A77.082,77.082,0,0,0,2015.1,1325.8c29.84,32.3,57.119,106.1,57.119,106.1,25.842,74.957,164.869,198.653,202.236,176.477,37.664-22.352-24.009-213.819-103.24-261.063-7.426-4.429-25.292-7.278-45.424-28.847C2102.441,1293.453,2102.78,1273.786,2078.4,1234.2Z" fill="#ec7d40"/>
      <path id="Tracé_99" data-name="Tracé 99" d="M1931.543,1168.246c-.1-.272-.193-.556-.289-.845,3.023-1.589,5.717-3.837,8.942-7.749,2.927-3.552,15.151,8.075,27.17,28.254,3.878,6.51,7.412,14.34,7.456,21.4.01,1.506-.4,6.325-2.9,9.48C1960.407,1195.589,1940.044,1192.3,1931.543,1168.246Z" fill="#f79556"/>
      <path id="Tracé_100" data-name="Tracé 100" d="M2173.135,1000.43c.8,3.623,1.656,7.249,2.665,10.816s2.09,7.11,3.236,10.629c1.178,3.5,2.371,7,3.63,10.477,1.276,3.463,2.6,6.907,3.939,10.346,5.458,13.7,11.529,27.123,18.056,40.307s13.541,26.121,21.067,38.78c3.776,6.323,7.675,12.58,11.764,18.729,2.065,3.066,4.14,6.122,6.311,9.125,1.08,1.505,2.185,2.995,3.294,4.48,1.158,1.46,2.273,2.94,3.464,4.371-5.08-13.963-10.774-27.489-16.739-40.9q-8.986-20.087-18.776-39.734-9.759-19.668-20.2-38.991C2187.85,1025.973,2180.767,1013.181,2173.135,1000.43Z" fill="#f79556"/>
      <path id="Tracé_101" data-name="Tracé 101" d="M2247.5,1014.6c1.353,2.969,2.8,5.882,4.395,8.727,1.569,2.856,3.338,5.642,5.1,8.339l10.522,16.018q10.653,15.972,22.067,31.4t23.777,30.185a327.382,327.382,0,0,0,26.378,28.325,329.808,329.808,0,0,0-19.022-33.714q-10.333-16.264-21.825-31.706c-7.656-10.3-15.665-20.342-24.168-30.021-4.24-4.822-8.69-9.623-13.36-14.1-2.333-2.233-4.616-4.412-6.905-6.671S2249.865,1016.843,2247.5,1014.6Z" fill="#f79556"/>
      <path id="Tracé_102" data-name="Tracé 102" d="M2334.6,1029.47a226.946,226.946,0,0,0,17.6,25.16c6.3,7.958,12.89,15.628,19.7,23.087s13.852,14.693,21.141,21.715c7.332,7,14.784,13.833,22.942,20.294-1.087-2.364-2.242-4.694-3.494-6.955s-2.578-4.466-3.924-6.662q-2.068-3.244-4.22-6.433c-1.446-2.113-2.935-4.189-4.444-6.251a292.609,292.609,0,0,0-19.445-23.534q-10.3-11.238-21.632-21.48A196.34,196.34,0,0,0,2334.6,1029.47Z" fill="#f79556"/>
    </g>
    <g id="Groupe_46" data-name="Groupe 46">
      <path id="Tracé_103" data-name="Tracé 103" d="M968.7,975.391c-7.166-16.257.79-29.148-10.615-42.238-10.424-11.963-19.28-14.987-22.892-26.307-3.169-9.935,4.458-18.377-.249-36.043-3.585-13.455-16.411-23.345-15.818-38.97,1.706-44.95,19.252-72.37,52.381-85.828,16.206-6.583,19.417.368,26.022-.639,5.133-.783,4.934-1.506,11.4-2.4,7.681-1.063,28.274,6.913,45.324,40.844,7.731,15.385,15.5,5.012,27.522,14.3,12.771,9.863,7.106,31.286,25.277,26.4,22.482-6.048,35.811,8.332,39.135,17.2,9.967,26.6,17.947,23.211,28.726,28.532,24.367,12.028,26.435,43.713,25.965,54.857-3.109,73.733-103.473,146.834-205.028,77.444C990.494,998.886,976.218,992.458,968.7,975.391Z" fill="#282444"/>
      <path id="Tracé_104" data-name="Tracé 104" d="M1135.305,1213c13.524-6.878,21.223-8.8,36.621-15.419,13.32-5.723,31.027-9.761,48.165-7.908,28.4,3.071,39.258,23.388,42.31,32.272,4.806,13.995.159,30.693-2.155,35.42-9.443,19.293-27.882,32.162-50.838,43.7-92.079,46.271-76.173,38.893-104.262,48.84-29.557,10.467-68.676,12.322-91.794-7.561-4.936-4.244-46.123-52.951-24.31-78.606C1015.272,1232.889,1080.418,1240.917,1135.305,1213Z" fill="#282444"/>
      <path id="Tracé_105" data-name="Tracé 105" d="M904.493,935.659c11.316,3.519,14.517,15.929,15.831,22.5,4.091,20.45-1.933,39.164-8.26,57.3-13.447,38.536-23.343,62.674-44.555,93.564-13.47,19.616-39.025,47.351-52.71,41.261-10.526-4.684-10.042-23.734-8.042-38.887,2.449-18.551,12.523-37.692,32.572-75.217,9.53-17.836,10.752-21.473,15.118-32.8,8.34-21.631,7.445-27.735,15.245-41.649C877.18,948.374,892.664,931.981,904.493,935.659Z" fill="#e30613"/>
      <path id="Tracé_106" data-name="Tracé 106" d="M1080.582,935.659c-11.317,3.519-14.517,15.929-15.831,22.5-4.091,20.45,1.933,39.164,8.26,57.3,13.447,38.536,23.343,62.674,44.555,93.564,13.47,19.616,39.025,47.351,52.709,41.261,10.526-4.684,10.042-23.734,8.042-38.887-2.448-18.551-12.523-37.692-32.572-75.217-9.529-17.836-10.751-21.473-15.117-32.8-8.341-21.631-7.445-27.735-15.246-41.649C1107.9,948.374,1092.411,931.981,1080.582,935.659Z" fill="#e30613"/>
      <path id="Tracé_107" data-name="Tracé 107" d="M1132.985,1244.347c-6.1-9.353-20.377-11.059-26.754-24.609-12.6-26.775-22.744-34.271-24.609-39.966-4.024-12.283-12.41-33.142-25.7-43.575-17.872-14.025-41.975-11.022-61.52,2.091-19.545-13.113-43.648-16.116-61.519-2.091-13.294,10.433-21.68,31.292-25.7,43.575-1.865,5.7-12.009,13.191-24.609,39.966-6.377,13.55-20.651,15.256-26.753,24.609-4.31,6.608-4.672,14.9-3.675,18.9,5.744,23.076,93.666,52.557,142.26,16.536,48.594,36.021,136.516,6.54,142.261-16.536C1137.656,1259.245,1137.3,1250.955,1132.985,1244.347Z" fill="#282444"/>
      <path id="Tracé_108" data-name="Tracé 108" d="M856.99,1214.02c-13.525-6.879-21.224-8.8-36.621-15.419-13.321-5.723-31.027-9.761-48.165-7.908-28.4,3.071-39.259,23.388-42.31,32.272-4.807,13.995-.16,30.693,2.154,35.42,9.443,19.293,27.882,32.162,50.838,43.7,92.08,46.271,76.173,38.893,104.262,48.84,29.557,10.467,68.676,12.322,91.795-7.561,4.935-4.244,46.122-52.951,24.309-78.606C977.022,1233.906,911.876,1241.934,856.99,1214.02Z" fill="#282444"/>
      <path id="Tracé_109" data-name="Tracé 109" d="M1008.6,1312.62c-16.144-3.994-154.858-87.191-188.139-107.1a79.334,79.334,0,0,0-39.083-10.5c-24.168.125-35.1,11.741-42.058,20.772-10.46,13.584-5.936,33.087-5.25,35.583,8.457,30.755,54.025,43.451,109.448,57.749,76.368,19.7,178.191,49.544,210.582,49.583,51.881.064,53.3,4.944,86.916-1.166,11.9-2.164,23.874-7.94,28-19.25,3.841-10.529-.391-24.229-9.333-30.916-22.337-16.707-68.2,3.239-87.314,7.7C1052.4,1319.741,1035.634,1319.307,1008.6,1312.62Z" fill="#ec7d40"/>
      <path id="Tracé_110" data-name="Tracé 110" d="M1075.5,1116.305c21.948-72.863,35.974-109.3,33.854-153.523-1.028-21.433-21.915-29.552-34.86-30.83-49.931-4.928-52.706-22.393-79.075-21.657-.163,0-.546.008-1.016.011s-.853-.007-1.016-.011c-26.369-.736-32.25,16.729-82.181,21.657-12.945,1.278-33.832,9.4-34.86,30.83-2.12,44.223,15.013,80.66,36.961,153.523,9.787,32.492-5.919,59.268-11.474,73.057-3,7.435,45.5,25.306,90.9,26.584h3.332c45.407-1.278,93.9-19.149,90.9-26.584C1081.414,1175.573,1065.708,1148.8,1075.5,1116.305Z" fill="#e30613"/>
      <path id="Tracé_111" data-name="Tracé 111" d="M951.942,1223.952c-67.128-25.275-65.488-87.219-91.092-108.068-22.613-18.412-49.77-8.154-54.193,13.2-4.456,17.21,24.737,71.921,97.436,106.4,28.311,13.43,48.976,15.452,59.184,12.884C969.643,1246.768,954.168,1224.79,951.942,1223.952Z" fill="#f79556"/>
      <path id="Tracé_112" data-name="Tracé 112" d="M1033.132,1223.952c67.129-25.275,65.488-87.219,91.093-108.068,22.613-18.412,49.77-8.154,54.192,13.2,4.456,17.21-24.736,71.921-97.435,106.4-28.312,13.43-48.976,15.452-59.184,12.884C1015.432,1246.768,1030.907,1224.79,1033.132,1223.952Z" fill="#f79556"/>
      <path id="Tracé_113" data-name="Tracé 113" d="M1111.44,1303.657c17.625-4.007,36.16-5.489,48.04,3.4,8.942,6.688,13.174,20.387,9.333,30.916-4.126,11.31-16.1,17.087-28,19.25a187.757,187.757,0,0,1-20.4,2.764c1.448-.859,7.515-5.326,11.268-14.526.248-.611,4.452-13.247-.813-23.589C1125.792,1311.9,1116.939,1307.512,1111.44,1303.657Z" fill="#e30613"/>
      <path id="Tracé_114" data-name="Tracé 114" d="M983.693,1311.6c26.522-7.51,154.858-87.191,188.139-107.1a79.344,79.344,0,0,1,39.083-10.5c24.169.125,35.1,11.741,42.058,20.772,10.46,13.584,5.936,33.088,5.25,35.583-8.457,30.755-54.024,43.451-109.448,57.75-76.368,19.7-178.191,49.543-210.582,49.582-51.881.064-53.295,4.944-86.915-1.166-11.9-2.163-23.875-7.94-28-19.25-3.841-10.529.391-24.229,9.333-30.916,22.338-16.707,68.2,3.239,87.314,7.7C939.9,1318.724,956.9,1319.189,983.693,1311.6Z" fill="#f79556"/>
      <path id="Tracé_115" data-name="Tracé 115" d="M880.582,1302.9c-17.626-4.006-36.161-5.488-48.04,3.4-8.942,6.688-13.174,20.388-9.333,30.916,4.126,11.31,16.1,17.087,28,19.251a187.933,187.933,0,0,0,20.4,2.763c-1.448-.858-7.515-5.325-11.268-14.526-.249-.611-4.452-13.247.812-23.588C866.229,1311.139,875.083,1306.753,880.582,1302.9Z" fill="#e30613"/>
      <g id="Groupe_45" data-name="Groupe 45">
        <path id="Tracé_116" data-name="Tracé 116" d="M1099.729,1249.332H885.535a5.441,5.441,0,0,1-5.42-5.313l-6.1-143.969a5.548,5.548,0,0,1,5.58-5.645h226.073a5.549,5.549,0,0,1,5.581,5.645l-6.1,143.969A5.441,5.441,0,0,1,1099.729,1249.332Z" fill="#fff"/>
        <path id="Tracé_117" data-name="Tracé 117" d="M1101.113,1254.233H884.151a5.441,5.441,0,0,1-5.42-5.313l-6.1-143.97a5.549,5.549,0,0,1,5.581-5.644h228.841a5.549,5.549,0,0,1,5.581,5.644l-6.1,143.97A5.441,5.441,0,0,1,1101.113,1254.233Z" fill="#f6e3d3"/>
      </g>
      <path id="Tracé_118" data-name="Tracé 118" d="M1021.522,922.8c-4.4-45.766-5.108-80.8-16.76-75.656a47.844,47.844,0,0,0-11.464,7,47.844,47.844,0,0,0-11.464-7c-11.652-5.145-12.363,29.89-16.76,75.656-.669,6.966,9.8,37.162,28.224,37.162C1009.816,959.966,1022.191,929.77,1021.522,922.8Z" fill="#f79556"/>
      <path id="Tracé_119" data-name="Tracé 119" d="M967.7,892.836c-.17,1.912,13.912,20.26,25.481,20.26,13.345,0,25.89-18.326,25.721-20.234-5.038,4.9-14.873,13.167-25.721,13.167C983.546,906.029,972.9,897.735,967.7,892.836Z" fill="#ec7d40"/>
      <path id="Tracé_120" data-name="Tracé 120" d="M1024.283,795.885a97.86,97.86,0,0,1-.221,19.019c-.362,2.361-1.722,3.723-4.832,3.979,0,0-7.728,1.452-24.669,1.214-.424-.006-2.106-.006-2.531,0-16.939.238-24.668-1.214-24.668-1.214-3.111-.256-4.469-1.618-4.832-3.979a97.938,97.938,0,0,1-.221-19.019c-5.21,13.479-12.173,27.122-19.567,29.413.152,1.308.316,2.651.5,4.057,2.241,17.361,4.491,43.585,22.868,62.412,4.3,4.412,16.322,14.75,27.073,14.75,12.131,0,23-10.338,27.306-14.75,18.377-18.827,20.626-45.051,22.867-62.412.181-1.406.345-2.749.5-4.057C1036.456,823.007,1029.493,809.364,1024.283,795.885Z" fill="#f79556"/>
    </g>
  </g>
</svg>
